<svg width="16" height="16" viewBox="0 0 16 16" fill="none" xmlns="http://www.w3.org/2000/svg">
<g clip-path="url(#clip0)">
<path d="M4.99997 6.14844V5.76562C4.99997 5.58379 5.14327 5.4375 5.3214 5.4375H6.8214L6.94729 5.18184C7.00086 5.06973 7.11202 5 7.2339 5H8.7647C8.88658 5 8.99774 5.06973 9.05265 5.18184L9.17854 5.4375H10.6785C10.8567 5.4375 11 5.58379 11 5.76562V6.14844C11 6.23867 10.9276 6.3125 10.8393 6.3125H5.16068C5.07229 6.3125 4.99997 6.23867 4.99997 6.14844ZM10.5607 6.92363L10.2875 11.3848C10.266 11.7307 9.98479 12 9.64595 12H6.35399C6.01515 12 5.7339 11.7307 5.71247 11.3848L5.43926 6.92363C5.4339 6.8293 5.50756 6.75 5.59997 6.75H10.4013C10.4924 6.75 10.566 6.8293 10.5607 6.92363Z" fill="#B9B9B9"/>
</g>
<rect x="0.499969" y="0.5" width="15" height="15" rx="3.5" stroke="#E3E3E3"/>
<defs>
<clipPath id="clip0">
<rect width="6" height="7" fill="white" transform="translate(4.99997 5)"/>
</clipPath>
</defs>
</svg>
