<svg width="48" height="48" viewBox="0 0 48 48" fill="none" xmlns="http://www.w3.org/2000/svg">
<circle cx="24" cy="24" r="24" fill="#C4C4C4"/>
<circle cx="24" cy="24" r="24" fill="url(#paint0_linear)"/>
<path d="M29.3321 8.33334H17.6678C16.843 8.33334 16.2783 9.16751 16.5851 9.93284L17.6666 13H29.3333L30.4148 9.93284C30.7216 9.16751 30.157 8.33334 29.3321 8.33334Z" fill="#E3E3E3"/>
<path d="M29.3333 15.3333H17.6666C17.6666 15.3333 9.49997 22.3333 9.49997 30.5C9.49997 35.1667 13 37.5 15.3333 37.5C17.6666 37.5 23.5 37.5 23.5 37.5C23.5 37.5 29.3333 37.5 31.6666 37.5C34 37.5 37.5 35.1667 37.5 30.5C37.5 22.3333 29.3333 15.3333 29.3333 15.3333ZM24.6666 31.5477V33.4167H22.3333V31.5535C20.6171 31.2315 19.538 30.1768 19.475 28.6357H21.4956C21.5925 29.4453 22.4091 29.9645 23.5863 29.9645C24.6725 29.9645 25.4413 29.4383 25.4413 28.6835C25.4413 28.0465 24.9431 27.6802 23.7181 27.4165L22.4173 27.14C20.5973 26.7597 19.7036 25.8112 19.7036 24.2887C19.7036 22.7568 20.7175 21.6648 22.3333 21.3055V19.4167H24.6666V21.302C26.2416 21.6543 27.294 22.7277 27.3453 24.1778H25.3795C25.2826 23.3892 24.5488 22.863 23.5385 22.863C22.4931 22.863 21.8013 23.3472 21.8013 24.109C21.8013 24.725 22.2785 25.0785 23.4486 25.327L24.6526 25.5837C26.6605 26.006 27.525 26.8717 27.525 28.421C27.525 30.0893 26.454 31.2082 24.6666 31.5477Z" fill="#E3E3E3"/>
<path d="M27 10.6667H20C20 8.73349 21.5668 7.16666 23.5 7.16666C25.4331 7.16666 27 8.73349 27 10.6667Z" fill="#E3E3E3"/>
<defs>
<linearGradient id="paint0_linear" x1="8.49997" y1="6" x2="37.5" y2="43.5" gradientUnits="userSpaceOnUse">
<stop stop-color="#3339DB"/>
<stop offset="1" stop-color="#7336D7"/>
</linearGradient>
</defs>
</svg>
