<svg width="16" height="16" viewBox="0 0 16 16" fill="none" xmlns="http://www.w3.org/2000/svg">
<g clip-path="url(#clip0)">
<path d="M12.8 7.10826V12.8H3.19997V5.33333H8.8917L12.0917 2.13333H3.19997C2.61064 2.13333 2.1333 2.61066 2.1333 3.2V12.8C2.1333 13.3893 2.61064 13.8667 3.19997 13.8667H12.8C13.3893 13.8667 13.8666 13.3893 13.8666 12.8V6.04213L12.8 7.10826Z" fill="#B9B9B9"/>
<path d="M15.4437 2.95627L15.7237 2.67627C16.0917 2.30827 16.0917 1.71094 15.7237 1.34294C15.3557 0.97494 14.7584 0.97494 14.3904 1.34294L14.1104 1.62294L15.4437 2.95627Z" fill="#B9B9B9"/>
<path d="M13.3562 2.37706L7.71997 8.01333L7.46664 9.59999L9.0533 9.34666L14.6896 3.71039L13.3562 2.37706Z" fill="#B9B9B9"/>
</g>
<defs>
<clipPath id="clip0">
<rect width="16" height="16" fill="white"/>
</clipPath>
</defs>
</svg>
